<svg width="83" height="39" viewBox="0 0 83 39" fill="none" xmlns="http://www.w3.org/2000/svg">
<rect width="83" height="39" fill="#FCF9E8"/>
<path d="M39.2311 11.6236C38.9311 11.397 38.5944 11.2403 38.2211 11.1536C37.8544 11.067 37.4844 11.0236 37.1111 11.0236H36.0211C35.6344 11.0236 35.2711 11.067 34.9311 11.1536C34.5978 11.2336 34.3078 11.367 34.0611 11.5536C33.8144 11.7336 33.6178 11.9736 33.4711 12.2736C33.3311 12.5736 33.2611 12.937 33.2611 13.3636C33.2611 13.797 33.3311 14.1636 33.4711 14.4636C33.6111 14.757 33.8044 14.997 34.0511 15.1836C34.3044 15.3636 34.5978 15.497 34.9311 15.5836C35.2644 15.6636 35.6278 15.7036 36.0211 15.7036H37.1111C37.4578 15.7036 37.7878 15.667 38.1011 15.5936C38.4211 15.5136 38.7078 15.3936 38.9611 15.2336C39.2144 15.067 39.4311 14.857 39.6111 14.6036C39.7911 14.3436 39.9211 14.0303 40.0011 13.6636H37.2411V13.0636H40.7011V13.3636C40.7011 13.917 40.6044 14.3836 40.4111 14.7636C40.2178 15.137 39.9578 15.4403 39.6311 15.6736C39.3044 15.9003 38.9244 16.0636 38.4911 16.1636C38.0578 16.2636 37.5978 16.3136 37.1111 16.3136H36.0211C35.5344 16.3136 35.0844 16.2603 34.6711 16.1536C34.2578 16.047 33.8978 15.877 33.5911 15.6436C33.2911 15.4103 33.0544 15.107 32.8811 14.7336C32.7078 14.3603 32.6211 13.9036 32.6211 13.3636C32.6211 12.8236 32.7078 12.367 32.8811 11.9936C33.0544 11.6203 33.2911 11.317 33.5911 11.0836C33.8978 10.8503 34.2578 10.6803 34.6711 10.5736C35.0844 10.467 35.5344 10.4136 36.0211 10.4136H37.1111C37.3578 10.4136 37.6044 10.4236 37.8511 10.4436C38.0978 10.457 38.3378 10.4903 38.5711 10.5436C38.8044 10.597 39.0311 10.6736 39.2511 10.7736C39.4778 10.867 39.6878 10.997 39.8811 11.1636L39.2311 11.6236ZM40.7311 11.3036C40.4978 10.997 40.2444 10.7503 39.9711 10.5636C39.6978 10.377 39.4078 10.2303 39.1011 10.1236C38.8011 10.017 38.4844 9.94697 38.1511 9.91364C37.8178 9.87364 37.4711 9.85364 37.1111 9.85364H36.0211C35.4411 9.85364 34.9111 9.9203 34.4311 10.0536C33.9511 10.1803 33.5344 10.3836 33.1811 10.6636C32.8344 10.9436 32.5644 11.307 32.3711 11.7536C32.1778 12.1936 32.0811 12.7303 32.0811 13.3636C32.0811 13.997 32.1778 14.537 32.3711 14.9836C32.5644 15.4236 32.8344 15.7836 33.1811 16.0636C33.5344 16.3436 33.9511 16.5503 34.4311 16.6836C34.9111 16.8103 35.4411 16.8736 36.0211 16.8736H37.1111C37.6844 16.8736 38.2211 16.8136 38.7211 16.6936C39.2278 16.567 39.6678 16.367 40.0411 16.0936C40.4144 15.8136 40.7078 15.4503 40.9211 15.0036C41.1411 14.557 41.2511 14.0103 41.2511 13.3636V12.5136H36.6811V14.2136H39.2811C39.1744 14.3936 39.0378 14.5436 38.8711 14.6636C38.7044 14.7836 38.5211 14.8803 38.3211 14.9536C38.1278 15.0203 37.9244 15.0703 37.7111 15.1036C37.5044 15.1303 37.3044 15.1436 37.1111 15.1436H36.0211C35.7211 15.1436 35.4378 15.1136 35.1711 15.0536C34.9044 14.9936 34.6711 14.897 34.4711 14.7636C34.2711 14.6236 34.1111 14.4403 33.9911 14.2136C33.8711 13.987 33.8111 13.7036 33.8111 13.3636C33.8111 13.0303 33.8711 12.7503 33.9911 12.5236C34.1111 12.297 34.2711 12.1136 34.4711 11.9736C34.6778 11.8336 34.9144 11.7336 35.1811 11.6736C35.4478 11.6136 35.7278 11.5836 36.0211 11.5836H37.1111C37.5044 11.5836 37.8811 11.647 38.2411 11.7736C38.6011 11.8936 38.9211 12.1003 39.2011 12.3936L40.7311 11.3036ZM33.6811 17.0236C33.3078 16.7036 33.0011 16.4003 32.7611 16.1136C32.5211 15.827 32.3311 15.5403 32.1911 15.2536C32.0578 14.9603 31.9644 14.6636 31.9111 14.3636C31.8578 14.057 31.8311 13.7236 31.8311 13.3636C31.8311 12.6836 31.9344 12.107 32.1411 11.6336C32.3478 11.1536 32.6344 10.7636 33.0011 10.4636C33.3744 10.1636 33.8178 9.94697 34.3311 9.81364C34.8444 9.67364 35.4078 9.60364 36.0211 9.60364H37.1111C37.4778 9.60364 37.8311 9.6203 38.1711 9.65364C38.5111 9.68697 38.8411 9.75697 39.1611 9.86364C39.4811 9.96364 39.7878 10.117 40.0811 10.3236C40.3811 10.5236 40.6711 10.7936 40.9511 11.1336C41.1511 11.3336 41.3144 11.5003 41.4411 11.6336C41.5678 11.767 41.6678 11.8803 41.7411 11.9736C41.8211 12.067 41.8811 12.1436 41.9211 12.2036C41.9678 12.257 42.0078 12.307 42.0411 12.3536L41.7411 12.5636L42.4711 13.2936V14.3636C42.4711 15.0503 42.3578 15.6303 42.1311 16.1036C41.9044 16.577 41.5944 16.9603 41.2011 17.2536C40.8078 17.5536 40.3444 17.767 39.8111 17.8936C39.2844 18.027 38.7178 18.0936 38.1111 18.0936H37.0211C36.3411 18.0936 35.7078 18.007 35.1211 17.8336C34.5344 17.667 34.0544 17.397 33.6811 17.0236ZM36.4311 12.8636C36.2311 12.897 36.0444 12.9503 35.8711 13.0236C35.7044 13.0903 35.5578 13.1836 35.4311 13.3036C35.3044 13.4236 35.2044 13.5736 35.1311 13.7536C35.0644 13.927 35.0311 14.1303 35.0311 14.3636C35.0311 14.5236 35.0444 14.657 35.0711 14.7636C35.2111 14.8103 35.3611 14.8436 35.5211 14.8636C35.6811 14.8836 35.8478 14.8936 36.0211 14.8936H36.9211L36.4311 14.4636V12.8636ZM49.9813 11.5836C50.0613 11.5836 50.1447 11.5903 50.2313 11.6036C50.318 11.617 50.398 11.6403 50.4713 11.6736C50.5447 11.707 50.6047 11.7536 50.6513 11.8136C50.7047 11.8736 50.7313 11.9536 50.7313 12.0536C50.7313 12.147 50.7047 12.2236 50.6513 12.2836C50.598 12.3436 50.5313 12.3903 50.4513 12.4236C50.378 12.457 50.2947 12.4803 50.2013 12.4936C50.1147 12.507 50.038 12.5136 49.9713 12.5136H46.2713V11.5836H49.9813ZM49.9713 13.0636C50.1313 13.0636 50.288 13.047 50.4413 13.0136C50.6013 12.9736 50.7447 12.9136 50.8713 12.8336C50.998 12.7536 51.098 12.6503 51.1713 12.5236C51.2513 12.3903 51.2913 12.2336 51.2913 12.0536C51.2913 11.867 51.2547 11.707 51.1813 11.5736C51.108 11.4403 51.008 11.3336 50.8813 11.2536C50.7613 11.1736 50.6213 11.117 50.4613 11.0836C50.308 11.0436 50.148 11.0236 49.9813 11.0236H45.7213V13.0636H49.9713ZM50.8813 13.5136C50.788 13.567 50.6847 13.607 50.5713 13.6336C50.458 13.6603 50.3513 13.687 50.2513 13.7136C50.6247 14.1536 50.998 14.587 51.3713 15.0136C51.7513 15.4403 52.1313 15.8736 52.5113 16.3136H51.7013L49.3913 13.6636H45.7213V16.3136H45.1013V10.4136H49.9813C50.2547 10.4136 50.508 10.4436 50.7413 10.5036C50.9813 10.5636 51.1847 10.6603 51.3513 10.7936C51.5247 10.927 51.658 11.097 51.7513 11.3036C51.8513 11.5103 51.9013 11.7603 51.9013 12.0536C51.9013 12.4203 51.818 12.7236 51.6513 12.9636C51.4847 13.197 51.2313 13.3803 50.8913 13.5136H50.8813ZM52.4613 12.0536C52.4613 11.6736 52.4013 11.347 52.2813 11.0736C52.1613 10.7936 51.9913 10.5636 51.7713 10.3836C51.5513 10.2036 51.288 10.0703 50.9813 9.98364C50.6813 9.89697 50.348 9.85364 49.9813 9.85364H44.5613V16.8736H46.2713V14.2136H49.1313L51.4313 16.8736H53.7313L51.2113 13.9836C52.0447 13.617 52.4613 12.9736 52.4613 12.0536ZM44.3113 17.1236V9.60364H49.9813C50.2413 9.60364 50.4913 9.62364 50.7313 9.66364C50.9713 9.69697 51.2113 9.7703 51.4513 9.88364C51.698 9.99697 51.9513 10.1603 52.2113 10.3736C52.478 10.587 52.7613 10.8703 53.0613 11.2236C53.2547 11.417 53.4047 11.677 53.5113 12.0036C53.6247 12.3236 53.6813 12.6736 53.6813 13.0536C53.6813 13.4936 53.5847 13.8836 53.3913 14.2236C53.2047 14.5636 52.9313 14.8403 52.5713 15.0536C52.778 15.2936 52.9947 15.5436 53.2213 15.8036C53.448 16.0636 53.6747 16.327 53.9013 16.5936C54.128 16.8536 54.3513 17.1103 54.5713 17.3636C54.798 17.6236 55.0113 17.867 55.2113 18.0936H52.3313L51.3213 17.1236L49.8613 15.4336H47.4913V18.0936H45.3413L44.3113 17.1236ZM60.4133 15.7036C60.8 15.7036 61.16 15.6636 61.4933 15.5836C61.8333 15.497 62.1266 15.3636 62.3733 15.1836C62.6266 14.997 62.8233 14.757 62.9633 14.4636C63.1033 14.1636 63.1733 13.797 63.1733 13.3636C63.1733 12.937 63.1 12.5736 62.9533 12.2736C62.8133 11.9736 62.62 11.7336 62.3733 11.5536C62.1266 11.367 61.8333 11.2336 61.4933 11.1536C61.16 11.067 60.8 11.0236 60.4133 11.0236H59.3133C58.92 11.0236 58.5533 11.067 58.2133 11.1536C57.88 11.2336 57.59 11.367 57.3433 11.5536C57.0966 11.7336 56.9 11.9736 56.7533 12.2736C56.6133 12.5736 56.5433 12.937 56.5433 13.3636C56.5433 13.797 56.6133 14.1636 56.7533 14.4636C56.9 14.757 57.0966 14.997 57.3433 15.1836C57.59 15.3703 57.88 15.5036 58.2133 15.5836C58.5533 15.6636 58.92 15.7036 59.3133 15.7036H60.4133ZM59.3133 15.1436C59.0133 15.1436 58.73 15.1136 58.4633 15.0536C58.1966 14.9936 57.9633 14.897 57.7633 14.7636C57.5633 14.6236 57.4033 14.4403 57.2833 14.2136C57.1633 13.987 57.1033 13.7036 57.1033 13.3636C57.1033 13.0303 57.1633 12.7503 57.2833 12.5236C57.4033 12.297 57.5633 12.1136 57.7633 11.9736C57.97 11.8336 58.2066 11.7336 58.4733 11.6736C58.74 11.6136 59.02 11.5836 59.3133 11.5836H60.4133C60.7066 11.5836 60.9866 11.6136 61.2533 11.6736C61.52 11.7336 61.7533 11.8336 61.9533 11.9736C62.1533 12.1136 62.3133 12.297 62.4333 12.5236C62.5533 12.7503 62.6133 13.0303 62.6133 13.3636C62.6133 13.697 62.5533 13.977 62.4333 14.2036C62.32 14.4303 62.1633 14.6136 61.9633 14.7536C61.7633 14.8936 61.53 14.9936 61.2633 15.0536C60.9966 15.1136 60.7133 15.1436 60.4133 15.1436H59.3133ZM55.9133 13.3636C55.9133 12.8236 55.9966 12.367 56.1633 11.9936C56.3366 11.6203 56.5733 11.317 56.8733 11.0836C57.18 10.8436 57.54 10.6736 57.9533 10.5736C58.3733 10.467 58.8266 10.4136 59.3133 10.4136H60.4133C60.9 10.4136 61.35 10.467 61.7633 10.5736C62.1766 10.6803 62.5333 10.8503 62.8333 11.0836C63.14 11.317 63.3766 11.6203 63.5433 11.9936C63.7166 12.367 63.8033 12.8236 63.8033 13.3636C63.8033 13.9036 63.7166 14.3603 63.5433 14.7336C63.3766 15.107 63.14 15.4103 62.8333 15.6436C62.5333 15.877 62.1766 16.047 61.7633 16.1536C61.35 16.2603 60.9 16.3136 60.4133 16.3136H59.3133C58.8266 16.3136 58.3733 16.2636 57.9533 16.1636C57.54 16.057 57.18 15.887 56.8733 15.6536C56.5733 15.4136 56.3366 15.107 56.1633 14.7336C55.9966 14.3603 55.9133 13.9036 55.9133 13.3636ZM55.3533 13.3636C55.3533 13.997 55.45 14.537 55.6433 14.9836C55.8433 15.4236 56.1166 15.7836 56.4633 16.0636C56.8166 16.3436 57.2333 16.5503 57.7133 16.6836C58.2 16.8103 58.7333 16.8736 59.3133 16.8736H60.4133C60.9933 16.8736 61.5233 16.8103 62.0033 16.6836C62.4833 16.5503 62.8966 16.3436 63.2433 16.0636C63.5966 15.7836 63.87 15.4236 64.0633 14.9836C64.2566 14.537 64.3533 13.997 64.3533 13.3636C64.3533 12.7303 64.2566 12.1936 64.0633 11.7536C63.87 11.307 63.5966 10.9436 63.2433 10.6636C62.8966 10.3836 62.4833 10.1803 62.0033 10.0536C61.5233 9.9203 60.9933 9.85364 60.4133 9.85364H59.3133C58.7333 9.85364 58.2 9.9203 57.7133 10.0536C57.2333 10.1803 56.8166 10.3836 56.4633 10.6636C56.1166 10.9436 55.8433 11.307 55.6433 11.7536C55.45 12.1936 55.3533 12.7303 55.3533 13.3636ZM55.1033 13.3636C55.1033 12.6836 55.2066 12.107 55.4133 11.6336C55.62 11.1536 55.91 10.7636 56.2833 10.4636C56.6566 10.1636 57.1 9.94697 57.6133 9.81364C58.1333 9.67364 58.7 9.60364 59.3133 9.60364H60.4133C60.8 9.60364 61.1633 9.62697 61.5033 9.67364C61.85 9.71364 62.19 9.80364 62.5233 9.94364C62.8566 10.077 63.1866 10.2703 63.5133 10.5236C63.8466 10.7703 64.19 11.1036 64.5433 11.5236C64.8433 11.8236 65.09 12.2203 65.2833 12.7136C65.4766 13.207 65.5733 13.757 65.5733 14.3636C65.5733 15.037 65.47 15.6103 65.2633 16.0836C65.0633 16.557 64.7766 16.9403 64.4033 17.2336C64.0366 17.5336 63.5966 17.7503 63.0833 17.8836C62.5766 18.0236 62.02 18.0936 61.4133 18.0936H60.3133C59.6333 18.0936 59 18.017 58.4133 17.8636C57.8266 17.7103 57.3433 17.447 56.9633 17.0736C56.5833 16.7403 56.2733 16.427 56.0333 16.1336C55.7933 15.8336 55.6033 15.537 55.4633 15.2436C55.33 14.9503 55.2366 14.6503 55.1833 14.3436C55.13 14.037 55.1033 13.7103 55.1033 13.3636ZM60.4133 14.8936C60.6733 14.8936 60.92 14.8703 61.1533 14.8236C61.3933 14.7703 61.6033 14.6836 61.7833 14.5636C61.9633 14.4436 62.1033 14.287 62.2033 14.0936C62.31 13.8936 62.3633 13.6503 62.3633 13.3636C62.3633 13.2036 62.3433 13.057 62.3033 12.9236C62.03 12.8436 61.7333 12.8036 61.4133 12.8036H60.3133C60.0466 12.8036 59.7933 12.8303 59.5533 12.8836C59.3133 12.937 59.1 13.0236 58.9133 13.1436C58.7333 13.2636 58.59 13.4236 58.4833 13.6236C58.3766 13.8236 58.3233 14.0703 58.3233 14.3636C58.3233 14.5236 58.3366 14.657 58.3633 14.7636C58.5033 14.8103 58.6533 14.8436 58.8133 14.8636C58.9733 14.8836 59.14 14.8936 59.3133 14.8936H60.4133ZM68.8398 15.2936C69.1731 14.467 69.5164 13.6536 69.8698 12.8536C70.2231 12.047 70.5698 11.2336 70.9098 10.4136H71.3998L73.4698 15.2836C73.8098 14.4703 74.1498 13.6603 74.4898 12.8536C74.8298 12.047 75.1664 11.2336 75.4998 10.4136H76.1998C75.7931 11.407 75.3864 12.3903 74.9798 13.3636C74.5731 14.337 74.1664 15.3203 73.7598 16.3136H73.2498L71.1598 11.4336L69.0498 16.3136H68.5598C68.1598 15.3203 67.7564 14.337 67.3498 13.3636C66.9431 12.3836 66.5331 11.4003 66.1198 10.4136H66.8198L68.8398 15.2936ZM68.1998 16.8736H69.4398C69.7198 16.1936 69.9998 15.5236 70.2798 14.8636C70.5664 14.197 70.8564 13.527 71.1498 12.8536L72.8698 16.8736H74.1198L77.0198 9.85364H75.1298C74.8564 10.5203 74.5798 11.1836 74.2998 11.8436C74.0264 12.497 73.7498 13.157 73.4698 13.8236L71.7698 9.85364H70.5498L68.8398 13.8436L67.1798 9.85364H65.2998L68.1998 16.8736ZM67.3398 9.60364L68.3198 10.6336L69.1098 12.5536C69.3231 12.0603 69.5364 11.5703 69.7498 11.0836C69.9631 10.597 70.1764 10.1036 70.3898 9.60364H71.9398L72.9198 10.6336L73.7298 12.5536L73.8498 12.2736C73.8898 12.1803 73.9331 12.0803 73.9798 11.9736C74.0331 11.8603 74.0764 11.757 74.1098 11.6636C74.2564 11.3236 74.4031 10.977 74.5498 10.6236C74.6964 10.2636 74.8364 9.92364 74.9698 9.60364H77.3898L78.3398 10.6336L75.2598 18.0936H73.7198L72.6998 17.1236L71.8398 15.1236C71.6264 15.6236 71.4131 16.1236 71.1998 16.6236C70.9864 17.117 70.7798 17.607 70.5798 18.0936H69.0598L68.0398 17.1236L64.9298 9.60364H67.3398ZM45.518 26.3136V23.6636H39.938V26.3136H39.328V20.4136H39.938V23.0636H45.518V20.4136H46.138V26.3136H45.518ZM46.698 26.8736V19.8536H44.958V22.5136H40.498V19.8536H38.768V26.8736H40.498V24.2136H44.958V26.8736H46.698ZM41.718 22.2636H44.708V19.6036H46.948L47.918 20.6336V28.0936H45.738L44.708 27.1236V25.4336H41.718V28.0936H39.548L38.518 27.1236V19.6036H40.748L41.718 20.6336V22.2636ZM50.732 20.4136V23.3636C50.732 23.797 50.802 24.1636 50.942 24.4636C51.082 24.757 51.2754 24.997 51.522 25.1836C51.7754 25.3636 52.0687 25.497 52.402 25.5836C52.7354 25.6636 53.0987 25.7036 53.492 25.7036H54.592C54.9787 25.7036 55.3387 25.6636 55.672 25.5836C56.012 25.497 56.3054 25.3636 56.552 25.1836C56.8054 24.997 57.002 24.757 57.142 24.4636C57.2887 24.1636 57.362 23.797 57.362 23.3636V20.4136H57.992V23.3636C57.992 23.9036 57.9054 24.3603 57.732 24.7336C57.5587 25.107 57.3187 25.4136 57.012 25.6536C56.712 25.887 56.3554 26.057 55.942 26.1636C55.5287 26.2636 55.0787 26.3136 54.592 26.3136H53.492C53.0054 26.3136 52.552 26.2636 52.132 26.1636C51.7187 26.057 51.3587 25.887 51.052 25.6536C50.752 25.4136 50.5154 25.107 50.342 24.7336C50.1754 24.3603 50.092 23.9036 50.092 23.3636V20.4136H50.732ZM49.542 23.3636C49.542 23.997 49.6387 24.537 49.832 24.9836C50.0254 25.4236 50.2954 25.7836 50.642 26.0636C50.9954 26.3436 51.412 26.5503 51.892 26.6836C52.3787 26.8103 52.912 26.8736 53.492 26.8736H54.592C55.172 26.8736 55.702 26.8103 56.182 26.6836C56.6687 26.5503 57.0854 26.3436 57.432 26.0636C57.7854 25.7836 58.0587 25.4236 58.252 24.9836C58.4454 24.537 58.542 23.997 58.542 23.3636V19.8536H56.802V23.3636C56.802 23.7036 56.742 23.987 56.622 24.2136C56.502 24.4403 56.342 24.6236 56.142 24.7636C55.942 24.897 55.7087 24.9936 55.442 25.0536C55.1754 25.1136 54.892 25.1436 54.592 25.1436H53.492C53.192 25.1436 52.9087 25.1136 52.642 25.0536C52.3754 24.9936 52.142 24.8936 51.942 24.7536C51.742 24.6136 51.582 24.4303 51.462 24.2036C51.3487 23.977 51.292 23.697 51.292 23.3636V19.8536H49.542V23.3636ZM49.292 19.6036H51.542L52.512 20.6336V24.3636C52.512 24.437 52.512 24.507 52.512 24.5736C52.5187 24.6403 52.5287 24.7036 52.542 24.7636C52.822 24.8503 53.1387 24.8936 53.492 24.8936H54.592C54.852 24.8936 55.0987 24.8703 55.332 24.8236C55.572 24.7703 55.782 24.6836 55.962 24.5636C56.142 24.4436 56.2854 24.287 56.392 24.0936C56.4987 23.9003 56.552 23.657 56.552 23.3636V19.6036H58.792L59.762 20.6336V24.3636C59.762 25.037 59.6587 25.6103 59.452 26.0836C59.2454 26.557 58.9587 26.9403 58.592 27.2336C58.2254 27.5336 57.7854 27.7503 57.272 27.8836C56.7587 28.0236 56.1987 28.0936 55.592 28.0936H54.492C54.152 28.0936 53.822 28.077 53.502 28.0436C53.1887 28.0103 52.8887 27.9536 52.602 27.8736C52.322 27.8003 52.062 27.7003 51.822 27.5736C51.582 27.447 51.3687 27.2903 51.182 27.1036C50.802 26.777 50.4887 26.467 50.242 26.1736C50.002 25.8736 49.812 25.5736 49.672 25.2736C49.532 24.9736 49.432 24.6703 49.372 24.3636C49.3187 24.0503 49.292 23.717 49.292 23.3636V19.6036ZM67.0605 23.0636C67.2205 23.0636 67.3771 23.047 67.5305 23.0136C67.6838 22.9736 67.8205 22.9136 67.9405 22.8336C68.0671 22.7536 68.1671 22.6503 68.2405 22.5236C68.3138 22.3903 68.3505 22.2336 68.3505 22.0536C68.3505 21.867 68.3138 21.7103 68.2405 21.5836C68.1738 21.4503 68.0805 21.3436 67.9605 21.2636C67.8405 21.177 67.7038 21.117 67.5505 21.0836C67.3971 21.0436 67.2371 21.0236 67.0705 21.0236H62.7905V23.0636H67.0605ZM67.0705 21.5836C67.1438 21.5836 67.2238 21.5903 67.3105 21.6036C67.3971 21.617 67.4771 21.6436 67.5505 21.6836C67.6238 21.717 67.6838 21.7636 67.7305 21.8236C67.7771 21.8836 67.8005 21.9603 67.8005 22.0536C67.8005 22.147 67.7738 22.2236 67.7205 22.2836C67.6738 22.337 67.6105 22.3836 67.5305 22.4236C67.4571 22.457 67.3771 22.4803 67.2905 22.4936C67.2038 22.507 67.1271 22.5136 67.0605 22.5136H63.3505V21.5836H67.0705ZM67.6005 25.7036C67.7605 25.7036 67.9205 25.687 68.0805 25.6536C68.2405 25.6136 68.3805 25.5536 68.5005 25.4736C68.6271 25.387 68.7271 25.2803 68.8005 25.1536C68.8805 25.0203 68.9205 24.8603 68.9205 24.6736C68.9205 24.507 68.8871 24.3603 68.8205 24.2336C68.7538 24.107 68.6638 24.0036 68.5505 23.9236C68.4371 23.837 68.3071 23.7736 68.1605 23.7336C68.0205 23.687 67.8738 23.6636 67.7205 23.6636H62.7905V25.7036H67.6005ZM67.7205 24.2136C67.7871 24.2136 67.8571 24.2236 67.9305 24.2436C68.0105 24.257 68.0805 24.2836 68.1405 24.3236C68.2071 24.357 68.2605 24.4036 68.3005 24.4636C68.3405 24.5236 68.3605 24.5936 68.3605 24.6736C68.3605 24.7736 68.3338 24.8536 68.2805 24.9136C68.2338 24.9736 68.1705 25.0203 68.0905 25.0536C68.0171 25.087 67.9338 25.1103 67.8405 25.1236C67.7538 25.137 67.6738 25.1436 67.6005 25.1436H63.3505V24.2136H67.7205ZM67.0705 20.4136C67.3438 20.4136 67.5971 20.4436 67.8305 20.5036C68.0638 20.5636 68.2638 20.6603 68.4305 20.7936C68.6038 20.927 68.7371 21.097 68.8305 21.3036C68.9305 21.5103 68.9838 21.7603 68.9905 22.0536C68.9905 22.2136 68.9538 22.367 68.8805 22.5136C68.8138 22.6536 68.7305 22.777 68.6305 22.8836C68.5305 22.9903 68.4238 23.077 68.3105 23.1436C68.1971 23.2036 68.1005 23.237 68.0205 23.2436C68.2005 23.257 68.3805 23.3036 68.5605 23.3836C68.7405 23.457 68.9005 23.557 69.0405 23.6836C69.1871 23.8103 69.3071 23.957 69.4005 24.1236C69.4938 24.2903 69.5405 24.4736 69.5405 24.6736C69.5405 24.9736 69.4905 25.2303 69.3905 25.4436C69.2905 25.6503 69.1505 25.8203 68.9705 25.9536C68.7971 26.0803 68.5905 26.1736 68.3505 26.2336C68.1171 26.287 67.8671 26.3136 67.6005 26.3136H62.1905V20.4136H67.0705ZM67.6005 26.8736C67.9605 26.8736 68.2938 26.8336 68.6005 26.7536C68.9071 26.667 69.1705 26.537 69.3905 26.3636C69.6105 26.1836 69.7838 25.957 69.9105 25.6836C70.0371 25.4036 70.1005 25.067 70.1005 24.6736C70.1005 24.3403 70.0071 24.0436 69.8205 23.7836C69.6405 23.5236 69.3671 23.317 69.0005 23.1636C69.0805 23.097 69.1538 23.0203 69.2205 22.9336C69.2871 22.8403 69.3438 22.7436 69.3905 22.6436C69.4371 22.5436 69.4738 22.4436 69.5005 22.3436C69.5271 22.237 69.5405 22.1403 69.5405 22.0536C69.5405 21.6736 69.4805 21.347 69.3605 21.0736C69.2405 20.7936 69.0705 20.5636 68.8505 20.3836C68.6371 20.2036 68.3771 20.0703 68.0705 19.9836C67.7705 19.897 67.4371 19.8536 67.0705 19.8536H61.6305V26.8736H67.6005ZM61.3805 19.6036H67.0705C67.6705 19.6036 68.2138 19.7036 68.7005 19.9036C69.1871 20.1036 69.6405 20.4536 70.0605 20.9536C70.2005 21.1203 70.3271 21.327 70.4405 21.5736C70.5538 21.8136 70.6338 22.067 70.6805 22.3336C70.7271 22.5936 70.7271 22.8503 70.6805 23.1036C70.6405 23.357 70.5338 23.5736 70.3605 23.7536C70.5338 23.8203 70.6805 23.9336 70.8005 24.0936C70.9205 24.247 71.0171 24.417 71.0905 24.6036C71.1705 24.7903 71.2271 24.9803 71.2605 25.1736C71.3005 25.367 71.3205 25.5336 71.3205 25.6736C71.3205 26.107 71.2505 26.477 71.1105 26.7836C70.9771 27.0836 70.7905 27.3303 70.5505 27.5236C70.3105 27.7236 70.0238 27.867 69.6905 27.9536C69.3571 28.047 68.9938 28.0936 68.6005 28.0936H62.4105L61.3805 27.1236V19.6036Z" fill="black"/>
<g filter="url(#filter0_i_202_13)">
<path d="M31.834 22.9905H33.4332L31.3419 21.036C28.3486 18.2333 24.2071 16.6476 19.8605 16.6476H19.3685H18.3024H17.7693C13.4638 16.6476 9.32227 18.2333 6.28791 21.036L4.19666 22.9905H5.79585C10.1014 22.9905 14.2429 21.4048 17.2772 18.6021L18.8354 17.1639C17.9333 22.1055 10.1014 29.9235 10.1014 29.9235H18.8764H27.6515C27.6515 29.9235 19.9015 22.2161 18.9174 17.2745L20.3526 18.639C23.346 21.4048 27.4875 22.9905 31.834 22.9905Z" fill="#F26B1D"/>
<path d="M17.5232 13.7712L18.7944 12.5911L20.0656 13.7712C22.5259 16.0945 25.9703 17.3852 29.5377 17.3852H30.8499L29.1276 15.7626C26.6673 13.4393 23.2229 12.1486 19.6555 12.1486H19.2455H18.3433H17.9333C14.3659 12.1486 10.9625 13.4393 8.46116 15.7626L6.73895 17.422H8.05111C11.6185 17.422 15.063 16.0945 17.5232 13.7712Z" fill="#F26B1D"/>
<path d="M17.7693 9.71468L18.7944 8.75587L19.8196 9.71468C21.8288 11.5954 24.6171 12.6649 27.5285 12.6649H28.5946L27.2005 11.3373C25.1912 9.45654 22.4029 8.3871 19.4915 8.3871H19.1635H18.4254H18.0974C15.186 8.3871 12.3977 9.45654 10.3884 11.3373L8.99426 12.6649H10.0604C12.9717 12.6649 15.7601 11.5954 17.7693 9.71468Z" fill="#F26B1D"/>
</g>
<defs>
<filter id="filter0_i_202_13" x="4.19666" y="8.3871" width="29.2365" height="25.5364" filterUnits="userSpaceOnUse" color-interpolation-filters="sRGB">
<feFlood flood-opacity="0" result="BackgroundImageFix"/>
<feBlend mode="normal" in="SourceGraphic" in2="BackgroundImageFix" result="shape"/>
<feColorMatrix in="SourceAlpha" type="matrix" values="0 0 0 0 0 0 0 0 0 0 0 0 0 0 0 0 0 0 127 0" result="hardAlpha"/>
<feOffset dy="4"/>
<feGaussianBlur stdDeviation="2"/>
<feComposite in2="hardAlpha" operator="arithmetic" k2="-1" k3="1"/>
<feColorMatrix type="matrix" values="0 0 0 0 0 0 0 0 0 0 0 0 0 0 0 0 0 0 0.25 0"/>
<feBlend mode="normal" in2="shape" result="effect1_innerShadow_202_13"/>
</filter>
</defs>
</svg>
